<?xml version="1.0" standalone="no"?>
<!DOCTYPE svg PUBLIC "-//W3C//DTD SVG 20010904//EN"
 "http://www.w3.org/TR/2001/REC-SVG-20010904/DTD/svg10.dtd">
<svg version="1.0" xmlns="http://www.w3.org/2000/svg"
 width="109.000000pt" height="110.000000pt" viewBox="0 0 109.000000 110.000000"
 preserveAspectRatio="xMidYMid meet">

<g transform="translate(0.000000,110.000000) scale(0.100000,-0.100000)"
fill="#000000" stroke="none">
<path d="M455 1080 c-204 -44 -354 -179 -421 -380 -25 -75 -25 -225 0 -300 31
-92 75 -166 137 -227 110 -109 227 -158 379 -158 142 0 252 43 355 137 240
219 240 577 0 796 -62 57 -107 84 -195 114 -63 22 -195 31 -255 18z m228 -304
c18 -8 40 -20 50 -27 16 -13 16 -16 2 -36 l-16 -23 -40 21 c-82 41 -193 17
-234 -53 -9 -17 -20 -59 -23 -93 -6 -79 21 -143 75 -176 48 -30 128 -29 184 3
40 22 41 22 55 4 12 -17 10 -22 -22 -47 -66 -52 -194 -54 -266 -3 -78 54 -117
178 -88 282 14 53 72 119 125 143 49 22 152 25 198 5z"/>
</g>
</svg>
